# xmcd
#
# Track frame offsets: 
#        150
#        17383
#        33073
#        44685
#        58871
#        74927
#        90856
#        103712
#        118938
#        139264
#        152391
#        165704
#
# Disc length: 2448 seconds
#
# Revision: 1
# Processed by: cddbd v1.5.2PL0 Copyright (c) Steve Scherf et al.
# Submitted via: ExactAudioCopy v0.99pb3
#
DISCID=9e098e0c
DTITLE=Duelo - Para Sobrevivir
DYEAR=2004
DGENRE=Latin
TTITLE0=Despues De Amar
TTITLE1=Hablar De Ti
TTITLE2=No Se Encuentra
TTITLE3=Bienvenido Al Amor
TTITLE4=Platicamos Tanto
TTITLE5=Entonces Comprendi
TTITLE6=Para Sobrevivir
TTITLE7=Si Te Olvido
TTITLE8=Despues De La Tormenta
TTITLE9=Me Gana
TTITLE10=Dejame Volar
TTITLE11=Lo Que Nunca Comenzo
EXTD=By Maxwell Smart\n
EXTT0=
EXTT1=
EXTT2=
EXTT3=
EXTT4=
EXTT5=
EXTT6=
EXTT7=
EXTT8=
EXTT9=
EXTT10=
EXTT11=
PLAYORDER=
